<?xml version="1.0" standalone="no"?>
<!DOCTYPE svg PUBLIC "-//W3C//DTD SVG 20010904//EN"
 "http://www.w3.org/TR/2001/REC-SVG-20010904/DTD/svg10.dtd">
<svg version="1.0" xmlns="http://www.w3.org/2000/svg"
 width="570.000000pt" height="570.000000pt" viewBox="0 0 570.000000 570.000000"
 preserveAspectRatio="xMidYMid meet">
<metadata>
Created by potrace 1.14, written by Peter Selinger 2001-2017
</metadata>
<g transform="translate(0.000000,570.000000) scale(0.100000,-0.100000)"
fill="#000000" stroke="none">
<path d="M167 5540 c3 -10 12 -27 21 -37 10 -10 26 -35 37 -55 11 -21 22 -38
26 -38 4 0 12 -13 19 -30 7 -16 16 -30 21 -30 5 0 11 -11 15 -25 3 -14 10 -23
14 -20 7 5 23 -32 21 -47 -1 -5 3 -8 8 -8 5 0 28 -31 51 -70 23 -38 47 -70 52
-70 5 0 7 -4 4 -8 -3 -5 4 -18 14 -30 11 -12 20 -25 20 -30 0 -5 9 -19 20 -32
11 -13 20 -29 20 -35 0 -7 7 -16 16 -19 9 -4 14 -9 11 -12 -3 -4 -1 -12 6 -20
30 -34 37 -44 30 -44 -4 0 -3 -4 2 -8 6 -4 26 -32 45 -62 19 -30 38 -59 43
-65 4 -5 32 -48 62 -95 29 -47 57 -89 62 -95 4 -5 14 -22 22 -37 8 -16 18 -28
23 -28 5 0 6 -4 3 -10 -3 -5 -1 -10 4 -10 6 0 11 -7 11 -15 0 -8 5 -15 10 -15
6 0 10 -7 10 -15 0 -8 5 -15 10 -15 6 0 10 -7 10 -15 0 -7 6 -18 13 -22 6 -4
21 -25 31 -45 11 -21 23 -38 28 -38 4 0 8 -5 8 -10 0 -6 32 -58 70 -116 39
-59 70 -111 70 -115 0 -5 5 -9 10 -9 6 0 10 -7 10 -15 0 -8 4 -15 9 -15 5 0
14 -13 21 -30 7 -16 16 -30 21 -30 5 0 9 -5 9 -10 0 -6 22 -44 50 -84 27 -41
46 -76 43 -80 -4 -3 1 -6 10 -6 10 0 17 -6 17 -13 0 -8 14 -33 30 -55 17 -23
30 -44 30 -46 0 -9 64 -101 72 -104 4 -2 8 -10 8 -18 0 -8 5 -14 10 -14 6 0
10 -5 10 -10 0 -6 32 -58 70 -116 39 -57 70 -109 70 -114 0 -6 5 -10 10 -10 6
0 10 -7 10 -15 0 -8 5 -15 10 -15 6 0 10 -5 10 -10 0 -12 41 -73 53 -78 4 -2
7 -9 7 -17 0 -7 7 -18 15 -25 8 -7 12 -16 10 -21 -3 -4 0 -11 8 -16 16 -10 97
-135 97 -150 0 -6 7 -13 15 -17 8 -3 15 -12 15 -21 0 -8 5 -15 11 -15 8 0 8
-4 0 -14 -8 -10 -9 -15 -1 -18 7 -2 -2 -21 -19 -46 -17 -23 -28 -42 -24 -42 5
0 0 -5 -10 -11 -9 -6 -15 -14 -12 -18 2 -5 -4 -16 -15 -26 -11 -10 -20 -24
-20 -31 0 -7 -3 -14 -8 -16 -4 -1 -34 -46 -66 -98 -32 -52 -63 -96 -67 -98 -5
-2 -9 -7 -9 -12 0 -8 -57 -100 -85 -135 -8 -10 -15 -25 -15 -32 0 -7 -4 -13
-10 -13 -5 0 -10 -4 -10 -8 0 -7 -92 -153 -140 -222 -44 -63 -78 -120 -72
-120 4 0 3 -4 -3 -8 -15 -11 -55 -70 -55 -82 0 -5 -4 -10 -10 -10 -5 0 -10 -7
-10 -15 0 -9 -7 -18 -15 -21 -8 -4 -15 -11 -15 -16 0 -6 -13 -30 -30 -55 -17
-24 -30 -48 -30 -54 0 -5 -3 -9 -8 -9 -4 0 -16 -17 -27 -37 -11 -21 -23 -40
-26 -43 -3 -3 -19 -25 -34 -50 -15 -25 -33 -48 -39 -52 -6 -4 -7 -8 -3 -8 5 0
-5 -19 -22 -42 -17 -23 -31 -48 -31 -56 0 -7 -4 -10 -10 -7 -5 3 -10 -1 -10
-9 0 -9 -5 -16 -11 -16 -5 0 -8 -4 -5 -8 3 -5 -3 -18 -14 -29 -10 -12 -16 -24
-13 -27 4 -3 2 -6 -4 -6 -5 0 -15 -11 -21 -25 -7 -14 -17 -31 -22 -38 -6 -7
-25 -34 -42 -62 -18 -27 -58 -90 -90 -139 -32 -48 -58 -92 -58 -97 0 -5 -4 -9
-9 -9 -5 0 -11 -8 -15 -17 -6 -21 -25 -51 -44 -71 -6 -7 -12 -20 -12 -28 0 -8
-4 -12 -10 -9 -5 3 -10 -1 -10 -9 0 -8 -6 -21 -13 -28 -6 -7 -18 -25 -26 -41
-8 -15 -18 -27 -23 -27 -4 0 -8 -5 -8 -10 0 -6 -20 -41 -45 -79 -25 -38 -45
-73 -45 -80 0 -6 -5 -11 -10 -11 -6 0 -18 -16 -27 -35 -9 -19 -20 -35 -25 -35
-4 0 -8 -5 -8 -10 0 -6 -27 -51 -60 -101 -33 -50 -60 -95 -60 -100 0 -5 -5 -9
-11 -9 -5 0 -8 -4 -4 -9 3 -6 -3 -14 -12 -20 -10 -6 -15 -11 -10 -11 4 0 36
20 72 45 36 25 65 43 65 40 0 -4 7 0 15 7 34 31 43 36 49 31 3 -4 6 -1 6 5 0
7 7 12 15 12 8 0 15 5 15 10 0 6 7 10 15 10 9 0 18 7 21 15 4 8 10 12 15 9 5
-3 9 -1 9 3 0 5 17 17 37 28 21 11 40 22 43 25 3 3 77 52 165 108 88 56 167
106 175 112 8 5 44 29 80 52 141 89 175 113 182 123 4 5 8 6 8 2 0 -5 18 5 39
22 21 17 42 31 45 31 4 0 40 23 81 50 41 28 76 50 79 50 8 0 100 64 108 74 3
5 13 11 22 12 9 1 22 9 31 17 8 9 24 19 35 22 11 3 20 11 20 16 0 5 7 9 15 9
8 0 15 5 15 10 0 6 7 10 15 10 8 0 15 5 15 11 0 5 4 8 9 4 6 -3 14 3 20 12 6
10 11 15 11 11 0 -4 29 13 65 37 36 25 70 45 75 45 6 0 10 5 10 10 0 6 6 10
14 10 8 0 16 3 18 8 4 10 86 62 97 62 6 0 15 8 20 17 6 10 11 14 11 10 0 -5 7
-1 16 7 8 9 20 13 26 10 6 -4 8 -2 5 3 -6 9 20 27 32 23 2 -1 7 2 10 7 3 5 51
37 106 72 55 35 102 68 103 72 2 5 10 9 17 9 8 0 20 6 27 12 8 7 23 18 33 25
123 75 155 97 155 105 0 5 5 6 10 3 6 -3 10 -1 10 6 0 7 3 9 6 6 4 -4 24 7 44
23 20 16 40 27 44 23 3 -3 6 -2 6 4 0 6 13 16 30 23 17 7 30 16 30 21 0 5 7 9
15 9 8 0 15 5 15 10 0 6 7 10 15 10 8 0 15 4 15 9 0 5 8 12 18 15 9 3 28 13
42 21 22 12 27 12 42 -2 10 -9 18 -12 18 -7 0 5 5 1 11 -8 5 -10 14 -18 18
-18 13 0 121 -67 116 -72 -3 -2 11 -11 30 -18 19 -8 35 -17 35 -22 0 -4 7 -8
15 -8 8 0 15 -4 15 -9 0 -5 13 -14 30 -21 17 -7 30 -16 30 -21 0 -5 6 -9 14
-9 7 0 19 -6 25 -14 7 -8 27 -22 46 -31 19 -9 35 -20 35 -25 0 -6 5 -10 10
-10 11 0 91 -50 100 -62 3 -3 12 -8 20 -10 8 -2 25 -13 39 -25 14 -12 38 -27
53 -34 15 -6 28 -15 28 -20 0 -5 5 -9 11 -9 6 0 29 -13 52 -29 101 -70 259
-171 267 -171 6 0 10 -4 10 -10 0 -5 7 -10 15 -10 9 0 18 -6 21 -14 3 -8 16
-17 30 -20 13 -4 24 -11 24 -16 0 -6 6 -10 13 -10 12 0 26 -9 74 -50 7 -6 15
-10 18 -10 4 0 96 -58 205 -130 183 -120 262 -170 270 -170 6 0 10 -4 10 -8 0
-9 56 -44 66 -42 4 1 10 -2 13 -7 11 -15 80 -63 90 -63 6 0 11 -4 11 -10 0 -5
4 -10 10 -10 5 0 78 -45 162 -100 84 -55 160 -105 168 -110 8 -5 32 -21 53
-35 20 -13 37 -21 37 -18 0 4 7 -2 15 -13 8 -10 15 -16 15 -11 0 4 8 0 18 -9
21 -20 212 -144 212 -138 0 3 10 -4 22 -16 12 -11 27 -20 34 -20 6 0 14 -6 17
-14 3 -7 14 -16 26 -19 18 -4 18 -2 -7 37 -15 22 -30 43 -34 44 -5 2 -8 10 -8
18 0 8 -3 14 -8 14 -4 0 -13 13 -20 28 -6 16 -20 37 -30 48 -10 10 -20 24 -21
29 -2 6 -21 36 -42 67 -22 31 -39 62 -39 67 0 6 -4 11 -10 11 -5 0 -10 6 -10
13 0 6 -11 25 -25 41 -13 16 -27 37 -30 47 -4 11 -11 19 -16 19 -5 0 -9 5 -9
12 0 6 -11 25 -23 42 -13 17 -37 54 -52 81 -16 28 -33 53 -38 56 -10 7 -34 46
-43 72 -3 9 -10 17 -15 17 -5 0 -9 7 -9 15 0 8 -4 15 -10 15 -5 0 -10 7 -10
15 0 8 -4 15 -10 15 -5 0 -10 7 -10 15 0 8 -4 15 -10 15 -5 0 -10 4 -10 10 0
13 -98 163 -113 172 -7 4 -9 8 -5 8 6 0 -48 88 -72 117 -6 7 -10 17 -10 23 0
5 -4 10 -10 10 -5 0 -10 4 -10 9 0 9 -57 100 -70 111 -3 3 -14 22 -25 43 -11
20 -23 37 -27 37 -5 0 -16 18 -25 40 -10 22 -21 40 -25 40 -5 0 -8 7 -8 15 0
8 -4 15 -10 15 -5 0 -10 7 -10 15 0 8 -4 15 -9 15 -5 0 -14 14 -21 30 -7 17
-16 30 -21 30 -5 0 -9 6 -9 13 0 7 -9 23 -20 35 -11 12 -20 23 -20 26 0 5 -32
56 -150 236 -5 8 -21 31 -35 50 -13 19 -29 45 -35 58 -5 12 -15 28 -21 35 -6
6 -39 57 -74 112 -36 55 -69 105 -75 112 -5 7 -10 16 -10 21 0 5 -9 17 -20 27
-11 10 -20 23 -20 30 0 7 -11 24 -25 39 -13 14 -24 29 -24 32 1 3 -25 44 -56
92 -32 48 -58 92 -58 99 0 7 -4 10 -8 8 -6 -4 -22 24 -19 33 0 1 -9 12 -20 24
-22 24 -21 45 1 40 11 -3 11 -1 2 9 -11 11 -2 41 17 59 13 12 51 70 46 70 -3
0 2 9 12 19 32 36 41 49 36 54 -2 2 2 10 11 17 8 7 15 18 15 25 0 7 7 16 16
19 8 3 13 10 10 15 -3 5 1 14 9 21 8 7 15 19 15 26 0 8 4 14 9 14 5 0 24 25
41 55 17 30 38 62 46 70 8 8 14 16 13 17 -3 5 93 153 105 160 6 4 7 10 3 14
-3 4 1 14 11 23 20 19 40 50 48 74 4 9 11 17 17 17 6 0 8 3 4 6 -3 3 2 15 12
26 10 10 27 36 37 56 11 20 25 41 32 45 6 4 12 14 12 21 0 8 6 19 13 25 8 6
38 51 67 101 30 49 58 90 62 90 4 0 8 4 8 9 0 5 18 37 40 70 22 33 40 65 40
71 0 5 4 10 9 10 5 0 16 16 25 35 9 19 22 35 28 35 6 0 9 3 6 6 -5 4 70 128
109 180 14 18 32 48 49 82 9 17 20 32 25 32 5 0 9 4 9 9 0 5 27 50 60 100 33
50 60 93 60 97 0 3 6 12 13 19 28 32 38 45 33 45 -5 0 84 140 111 176 17 21
33 50 43 72 5 12 14 22 20 22 5 0 9 3 8 8 -2 4 32 60 75 125 42 64 77 122 77
127 0 6 5 10 10 10 6 0 10 7 10 15 0 8 4 15 9 15 5 0 11 8 14 18 4 9 26 47 51
85 31 45 41 67 31 67 -8 0 -15 -4 -15 -9 0 -5 -13 -14 -30 -21 -16 -7 -30 -16
-30 -21 0 -5 -5 -9 -11 -9 -6 0 -26 -12 -45 -26 -19 -15 -34 -23 -34 -20 0 4
-6 2 -12 -4 -48 -40 -63 -50 -75 -50 -7 0 -13 -3 -13 -7 0 -5 -23 -21 -50 -38
-28 -16 -50 -33 -50 -37 0 -4 -4 -7 -8 -5 -7 2 -167 -97 -182 -113 -10 -10
-45 -31 -62 -36 -10 -4 -18 -10 -18 -15 0 -5 -6 -9 -12 -9 -7 0 -31 -14 -52
-30 -22 -17 -45 -30 -52 -30 -6 0 -14 -7 -18 -15 -3 -8 -12 -15 -21 -15 -8 0
-15 -4 -15 -10 0 -5 -7 -10 -15 -10 -9 0 -18 -7 -21 -15 -4 -8 -10 -13 -14
-10 -5 3 -14 -1 -22 -8 -7 -8 -24 -20 -38 -27 -13 -7 -29 -17 -34 -21 -23 -19
-86 -58 -86 -53 0 2 -10 -4 -22 -16 -12 -11 -27 -20 -34 -20 -7 0 -14 -3 -16
-7 -4 -11 -127 -93 -138 -93 -5 0 -13 -6 -17 -14 -4 -8 -10 -14 -13 -13 -3 1
-50 -27 -105 -63 -55 -36 -103 -64 -107 -62 -5 1 -8 -2 -8 -8 0 -5 -16 -17
-35 -26 -19 -9 -35 -21 -35 -26 0 -5 -4 -6 -10 -3 -5 3 -10 1 -10 -4 0 -6 -7
-11 -15 -11 -8 0 -15 -4 -15 -8 0 -5 -16 -16 -35 -25 -19 -9 -35 -22 -35 -29
0 -6 -3 -9 -6 -6 -5 5 -121 -65 -151 -91 -7 -6 -15 -11 -18 -11 -9 0 -120 -74
-123 -82 -2 -5 -10 -8 -18 -8 -8 0 -14 -5 -14 -11 0 -5 -4 -8 -9 -4 -6 3 -14
-2 -19 -11 -5 -9 -13 -16 -18 -17 -19 -1 -64 -34 -56 -41 4 -4 3 -7 -3 -6 -19
4 -31 0 -51 -17 -10 -10 -36 -27 -56 -38 -21 -11 -38 -23 -38 -27 0 -5 -6 -8
-13 -8 -7 0 -22 -8 -33 -17 -10 -10 -31 -24 -46 -32 -16 -8 -28 -18 -28 -23 0
-4 -9 -8 -19 -8 -11 0 -21 -3 -23 -7 -1 -5 -30 -26 -63 -47 -33 -21 -72 -47
-87 -57 -15 -11 -32 -19 -38 -19 -5 0 -10 -4 -10 -9 0 -23 -74 -35 -94 -15 -9
8 -16 13 -16 9 0 -4 -7 0 -15 7 -30 27 -45 38 -50 38 -5 0 -56 31 -65 40 -3 3
-17 11 -32 19 -15 8 -36 22 -47 32 -10 10 -21 16 -23 13 -3 -2 -17 7 -31 20
-14 13 -28 21 -31 18 -3 -3 -6 0 -6 6 0 7 -7 12 -15 12 -8 0 -15 5 -15 12 0 6
-3 9 -6 5 -4 -3 -12 -1 -20 6 -36 33 -49 42 -54 39 -3 -1 -13 5 -23 13 -9 8
-20 15 -23 15 -2 0 -10 5 -17 10 -7 6 -46 32 -87 59 -155 100 -295 191 -305
198 -5 5 -22 14 -37 22 -16 8 -28 18 -28 23 0 4 -4 8 -10 8 -7 0 -229 140
-329 209 -13 9 -31 21 -40 26 -8 6 -48 31 -88 58 -40 26 -75 47 -78 47 -3 0
-15 9 -27 20 -12 11 -28 20 -35 20 -7 0 -13 4 -13 9 0 5 -13 14 -30 21 -16 7
-30 16 -30 21 0 5 -4 9 -10 9 -5 0 -29 13 -52 29 -124 85 -260 171 -268 171
-6 0 -10 4 -10 9 0 5 -13 14 -28 20 -15 7 -39 22 -53 34 -14 12 -31 23 -39 25
-8 2 -17 7 -20 11 -3 4 -24 19 -48 33 -23 13 -41 26 -40 29 2 2 1 3 -1 2 -2
-1 -16 5 -30 15 -46 30 -66 42 -81 49 -8 3 -19 12 -23 20 -4 7 -15 13 -22 13
-8 0 -15 5 -15 10 0 6 -7 10 -15 10 -8 0 -15 5 -15 10 0 6 -6 10 -13 10 -7 0
-22 8 -33 18 -10 9 -32 24 -49 32 -16 8 -37 22 -45 30 -8 9 -36 27 -62 40 -27
14 -48 28 -48 31 0 4 -6 9 -14 12 -9 4 -12 0 -9 -13z"/>
</g>
</svg>
